<?xml version="1.0" encoding="utf-8"?>
<!-- Generator: Adobe Illustrator 27.2.0, SVG Export Plug-In . SVG Version: 6.00 Build 0)  -->
<svg version="1.1" id="Layer_1" xmlns="http://www.w3.org/2000/svg" xmlns:xlink="http://www.w3.org/1999/xlink" x="0px" y="0px"
	 viewBox="0 0 34 23" style="enable-background:new 0 0 34 23;" xml:space="preserve">
<style type="text/css">
	.st0{fill-rule:evenodd;clip-rule:evenodd;fill:#FD955B;}
</style>
<path class="st0" d="M9.6,0.1L11.1,1c0.3,0.2,0.3,0.5,0.1,0.7c-2.2,2.7-4.1,5.5-4.1,9.1c2.9,0,6,2.4,6,5.5c0,4.3-3.5,7-7,6.5
	c-3.5-0.5-5.5-3-6-6C-0.8,10,3,3.8,8.6,0.2C8.9-0.1,9.3,0,9.6,0.1z M30.5,0.1L32,1c0.3,0.2,0.3,0.5,0.1,0.7C30,4.4,28,7.3,28,10.9
	c2.9,0,6,2.4,6,5.5c0,4.3-3.5,7-7,6.5c-3.5-0.5-5.5-3-6-6c-1-6.9,2.8-13.1,8.4-16.8C29.8-0.1,30.2,0,30.5,0.1z"/>
</svg>
