<?xml version="1.0" encoding="utf-8"?>
<!-- Generator: Adobe Illustrator 27.2.0, SVG Export Plug-In . SVG Version: 6.00 Build 0)  -->
<svg version="1.1" id="Layer_1" xmlns="http://www.w3.org/2000/svg" xmlns:xlink="http://www.w3.org/1999/xlink" x="0px" y="0px"
	 viewBox="0 0 800 800" style="enable-background:new 0 0 800 800;" xml:space="preserve">
<style type="text/css">
	.st0{fill:none;stroke:#FD955B;stroke-width:66.6667;stroke-linecap:round;stroke-linejoin:round;stroke-miterlimit:133.3333;}
</style>
<path class="st0" d="M100,300c0-36.8,29.8-66.7,66.7-66.7h50c21,0,40.7-9.9,53.3-26.7l35-46.7c12.6-16.8,32.4-26.7,53.3-26.7h83.3
	c21,0,40.7,9.9,53.3,26.7l35,46.7c12.6,16.8,32.4,26.7,53.3,26.7h50c36.8,0,66.7,29.8,66.7,66.7v300c0,36.8-29.8,66.7-66.7,66.7
	H166.7c-36.8,0-66.7-29.8-66.7-66.7V300z"/>
<circle class="st0" cx="400" cy="433.3" r="133.3"/>
</svg>
