<!DOCTYPE svg PUBLIC "-//W3C//DTD SVG 1.1//EN" "http://www.w3.org/Graphics/SVG/1.1/DTD/svg11.dtd">
<!-- Uploaded to: SVG Repo, www.svgrepo.com, Transformed by: SVG Repo Mixer Tools -->
<svg width="800px" height="800px" viewBox="0 0 24 24" fill="none" xmlns="http://www.w3.org/2000/svg" stroke="">
<g id="SVGRepo_bgCarrier" stroke-width="0"/>
<g id="SVGRepo_tracerCarrier" stroke-linecap="round" stroke-linejoin="round"/>
<g id="SVGRepo_iconCarrier"> <path d="M3 10V18C3 19.1046 3.89543 20 5 20H11M3 10V6C3 4.89543 3.89543 4 5 4H19C20.1046 4 21 4.89543 21 6V10M3 10H21M21 10V12" stroke="#fd955b" stroke-width="2" stroke-linecap="round" stroke-linejoin="round"/> <circle cx="6" cy="7" r="1" fill="#fd955b"/> <circle cx="9" cy="7" r="1" fill="#fd955b"/> <path d="M18 15.75C18.641 15.75 19.2007 16.1019 19.5002 16.6249M18 15.75C17.3589 15.75 16.7992 16.1019 16.4997 16.6249M18 15.75V14M18 21V19.2209M21 15.75L19.5002 16.6249M15 19.25L16.4997 18.3751M21 19.25L19.5003 18.3752M15 15.75L16.4997 16.6249M16.4997 18.3751C16.3523 18.1177 16.2679 17.8188 16.2679 17.5C16.2679 17.1812 16.3523 16.8823 16.4997 16.6249M16.4997 18.3751C16.8408 18.9707 17.4229 19.2326 18 19.2209M18 19.2209C18.5958 19.2088 19.1862 18.9049 19.5003 18.3752M19.5003 18.3752C19.6458 18.1298 19.732 17.8358 19.732 17.5C19.732 17.1812 19.6477 16.8823 19.5002 16.6249" stroke="#fd955b" stroke-width="2" stroke-linecap="round"/> </g>
</svg>