<?xml version="1.0" encoding="utf-8"?>
<!-- Generator: Adobe Illustrator 27.2.0, SVG Export Plug-In . SVG Version: 6.00 Build 0)  -->
<svg version="1.1" id="Layer_1" xmlns="http://www.w3.org/2000/svg" xmlns:xlink="http://www.w3.org/1999/xlink" x="0px" y="0px"
	 viewBox="0 0 800 800" style="enable-background:new 0 0 800 800;" xml:space="preserve">
<style type="text/css">
	.st0{fill:none;stroke:#FD955B;stroke-width:66.6667;stroke-linecap:round;stroke-linejoin:round;stroke-miterlimit:133.3333;}
	.st1{fill:none;stroke:#FD955B;stroke-width:66.6667;stroke-linecap:round;stroke-miterlimit:133.3333;}
</style>
<path class="st0" d="M333.3,133.3H200c-36.8,0-66.7,29.8-66.7,66.7v266.7c0,36.8,29.8,66.7,66.7,66.7h400
	c36.8,0,66.7-29.8,66.7-66.7v-33.3"/>
<path class="st1" d="M582.1,166.7c24.7,0,46.2,13.4,57.7,33.3 M582.1,166.7c-24.7,0-46.2,13.4-57.7,33.3 M582.1,166.7V100
	 M582.1,366.7v-67.8 M697.6,166.7L639.9,200 M466.7,300l57.7-33.3 M697.6,300l-57.7-33.3 M466.7,166.7l57.7,33.3 M524.4,266.7
	c-5.7-9.8-8.9-21.2-8.9-33.3s3.2-23.5,8.9-33.3 M524.4,266.7c13.1,22.7,35.5,32.7,57.7,32.2 M582.1,298.9
	c22.9-0.5,45.7-12,57.7-32.2 M639.9,266.7c5.6-9.3,8.9-20.5,8.9-33.3c0-12.1-3.2-23.5-8.9-33.3"/>
<path class="st0" d="M400,533.3v133.3"/>
<path class="st0" d="M266.7,666.7h266.7"/>
</svg>
