<!DOCTYPE svg PUBLIC "-//W3C//DTD SVG 1.1//EN" "http://www.w3.org/Graphics/SVG/1.1/DTD/svg11.dtd">
<!-- Uploaded to: SVG Repo, www.svgrepo.com, Transformed by: SVG Repo Mixer Tools -->
<svg fill="#a1a1a1" width="800px" height="800px" viewBox="0 0 32 32" version="1.1" xmlns="http://www.w3.org/2000/svg">
<g id="SVGRepo_bgCarrier" stroke-width="0"/>
<g id="SVGRepo_tracerCarrier" stroke-linecap="round" stroke-linejoin="round"/>
<g id="SVGRepo_iconCarrier"> <title>cplusplus</title> <path d="M28.586 16.494h-0.987v0.987h-0.987v-0.987h-0.987v-0.987h0.987v-0.987h0.987v0.987h0.987zM24.885 16.494h-0.987v0.987h-0.987v-0.987h-0.987v-0.987h0.987v-0.987h0.987v0.987h0.987zM16 24.885c-4.907-0.001-8.884-3.978-8.884-8.885s3.978-8.885 8.885-8.885c3.27 0 6.128 1.767 7.67 4.398l0.023 0.042-3.844 2.224c-0.782-1.339-2.213-2.224-3.849-2.224-2.454 0-4.444 1.989-4.444 4.444s1.989 4.444 4.444 4.444c1.636 0 3.066-0.884 3.837-2.201l0.011-0.021 3.846 2.224c-1.57 2.669-4.426 4.434-7.694 4.44h-0.001zM28.989 8.502c-0.198-0.356-0.474-0.646-0.805-0.856l-0.010-0.006-11.017-6.361c-0.336-0.174-0.733-0.276-1.155-0.276s-0.819 0.102-1.169 0.282l0.014-0.007-11.019 6.361c-0.663 0.438-1.106 1.163-1.153 1.993l-0 0.007v12.721c0.048 0.837 0.491 1.561 1.144 1.994l0.010 0.006 11.017 6.361c0.336 0.173 0.734 0.275 1.155 0.275s0.819-0.102 1.169-0.281l-0.014 0.007 11.017-6.361c0.663-0.438 1.105-1.163 1.152-1.993l0-0.007v-12.721c-0.011-0.422-0.135-0.813-0.341-1.147l0.006 0.010z"/> </g>
</svg>